<mxfile host="app.diagrams.net" modified="2024-07-14T13:48:17.296Z" agent="Mozilla/5.0 (Windows NT 10.0; Win64; x64) AppleWebKit/537.36 (KHTML, like Gecko) Chrome/126.0.0.0 Safari/537.36" etag="ph1dCp-G_tmudHjKh8fR" version="24.6.5" type="github">
  <diagram name="Page-1" id="asN5bpw0n0UStBhTPLTk">
    <mxGraphModel dx="1037" dy="570" grid="1" gridSize="10" guides="1" tooltips="1" connect="1" arrows="1" fold="1" page="1" pageScale="1" pageWidth="850" pageHeight="1100" math="0" shadow="0">
      <root>
        <mxCell id="0" />
        <mxCell id="1" parent="0" />
        <mxCell id="ibWpikEOWmiRaArv5uns-70" value="1" style="rounded=0;whiteSpace=wrap;html=1;fillColor=none;" vertex="1" parent="1">
          <mxGeometry x="80" y="40" width="40" height="20" as="geometry" />
        </mxCell>
        <mxCell id="ibWpikEOWmiRaArv5uns-71" value="2" style="rounded=0;whiteSpace=wrap;html=1;fillColor=none;" vertex="1" parent="1">
          <mxGeometry x="140" y="40" width="40" height="20" as="geometry" />
        </mxCell>
        <mxCell id="ibWpikEOWmiRaArv5uns-72" value="3" style="rounded=0;whiteSpace=wrap;html=1;fillColor=none;" vertex="1" parent="1">
          <mxGeometry x="200" y="40" width="40" height="20" as="geometry" />
        </mxCell>
        <mxCell id="ibWpikEOWmiRaArv5uns-73" value="P" style="rounded=0;whiteSpace=wrap;html=1;fillColor=none;" vertex="1" parent="1">
          <mxGeometry x="260" y="40" width="40" height="20" as="geometry" />
        </mxCell>
        <mxCell id="ibWpikEOWmiRaArv5uns-74" value="4" style="rounded=0;whiteSpace=wrap;html=1;fillColor=none;" vertex="1" parent="1">
          <mxGeometry x="80" y="80" width="40" height="20" as="geometry" />
        </mxCell>
        <mxCell id="ibWpikEOWmiRaArv5uns-75" value="5" style="rounded=0;whiteSpace=wrap;html=1;fillColor=none;" vertex="1" parent="1">
          <mxGeometry x="140" y="80" width="40" height="20" as="geometry" />
        </mxCell>
        <mxCell id="ibWpikEOWmiRaArv5uns-76" value="P" style="rounded=0;whiteSpace=wrap;html=1;fillColor=none;" vertex="1" parent="1">
          <mxGeometry x="200" y="80" width="40" height="20" as="geometry" />
        </mxCell>
        <mxCell id="ibWpikEOWmiRaArv5uns-77" value="6" style="rounded=0;whiteSpace=wrap;html=1;fillColor=none;" vertex="1" parent="1">
          <mxGeometry x="260" y="80" width="40" height="20" as="geometry" />
        </mxCell>
        <mxCell id="ibWpikEOWmiRaArv5uns-78" value="7" style="rounded=0;whiteSpace=wrap;html=1;fillColor=none;" vertex="1" parent="1">
          <mxGeometry x="80" y="120" width="40" height="20" as="geometry" />
        </mxCell>
        <mxCell id="ibWpikEOWmiRaArv5uns-79" value="P" style="rounded=0;whiteSpace=wrap;html=1;fillColor=none;" vertex="1" parent="1">
          <mxGeometry x="140" y="120" width="40" height="20" as="geometry" />
        </mxCell>
        <mxCell id="ibWpikEOWmiRaArv5uns-80" value="8" style="rounded=0;whiteSpace=wrap;html=1;fillColor=none;" vertex="1" parent="1">
          <mxGeometry x="200" y="120" width="40" height="20" as="geometry" />
        </mxCell>
        <mxCell id="ibWpikEOWmiRaArv5uns-81" value="9" style="rounded=0;whiteSpace=wrap;html=1;fillColor=none;" vertex="1" parent="1">
          <mxGeometry x="260" y="120" width="40" height="20" as="geometry" />
        </mxCell>
        <mxCell id="ibWpikEOWmiRaArv5uns-82" value="1&#39;" style="rounded=0;whiteSpace=wrap;html=1;fillColor=#999999;fillStyle=hatch;" vertex="1" parent="1">
          <mxGeometry x="80" y="260" width="40" height="20" as="geometry" />
        </mxCell>
        <mxCell id="ibWpikEOWmiRaArv5uns-83" value="2&#39;" style="rounded=0;whiteSpace=wrap;html=1;fillColor=#999999;fillStyle=hatch;" vertex="1" parent="1">
          <mxGeometry x="140" y="260" width="40" height="20" as="geometry" />
        </mxCell>
        <mxCell id="ibWpikEOWmiRaArv5uns-84" value="3&#39;" style="rounded=0;whiteSpace=wrap;html=1;fillColor=#999999;fillStyle=hatch;" vertex="1" parent="1">
          <mxGeometry x="200" y="260" width="40" height="20" as="geometry" />
        </mxCell>
        <mxCell id="ibWpikEOWmiRaArv5uns-85" value="NULL" style="rounded=0;whiteSpace=wrap;html=1;fillColor=#999999;fillStyle=hatch;" vertex="1" parent="1">
          <mxGeometry x="260" y="260" width="40" height="20" as="geometry" />
        </mxCell>
        <mxCell id="ibWpikEOWmiRaArv5uns-86" value="&lt;b&gt;&lt;font style=&quot;font-size: 18px;&quot;&gt;...&lt;/font&gt;&lt;/b&gt;" style="rounded=0;whiteSpace=wrap;html=1;rotation=90;fillColor=none;strokeColor=none;" vertex="1" parent="1">
          <mxGeometry x="180" y="330" width="40" height="20" as="geometry" />
        </mxCell>
        <mxCell id="ibWpikEOWmiRaArv5uns-87" value="5&#39;" style="rounded=0;whiteSpace=wrap;html=1;fillColor=#999999;fillStyle=hatch;" vertex="1" parent="1">
          <mxGeometry x="140" y="300" width="40" height="20" as="geometry" />
        </mxCell>
        <mxCell id="ibWpikEOWmiRaArv5uns-88" value="NULL" style="rounded=0;whiteSpace=wrap;html=1;fillColor=#999999;fillStyle=hatch;" vertex="1" parent="1">
          <mxGeometry x="200" y="300" width="40" height="20" as="geometry" />
        </mxCell>
        <mxCell id="ibWpikEOWmiRaArv5uns-89" value="6&#39;" style="rounded=0;whiteSpace=wrap;html=1;fillColor=#999999;fillStyle=hatch;" vertex="1" parent="1">
          <mxGeometry x="260" y="300" width="40" height="20" as="geometry" />
        </mxCell>
        <mxCell id="ibWpikEOWmiRaArv5uns-90" value="4&#39;" style="rounded=0;whiteSpace=wrap;html=1;fillColor=#999999;fillStyle=hatch;" vertex="1" parent="1">
          <mxGeometry x="80" y="300" width="40" height="20" as="geometry" />
        </mxCell>
        <mxCell id="ibWpikEOWmiRaArv5uns-121" value="" style="endArrow=none;dashed=1;html=1;rounded=0;" edge="1" parent="1">
          <mxGeometry width="50" height="50" relative="1" as="geometry">
            <mxPoint x="60" y="240" as="sourcePoint" />
            <mxPoint x="320" y="240" as="targetPoint" />
          </mxGeometry>
        </mxCell>
        <mxCell id="ibWpikEOWmiRaArv5uns-122" value="RAID part" style="rounded=0;whiteSpace=wrap;html=1;fontSize=15;fillColor=none;strokeColor=none;" vertex="1" parent="1">
          <mxGeometry y="110" width="80" height="40" as="geometry" />
        </mxCell>
        <mxCell id="ibWpikEOWmiRaArv5uns-123" value="Soft part" style="rounded=0;whiteSpace=wrap;html=1;fontSize=15;fillColor=none;strokeColor=none;" vertex="1" parent="1">
          <mxGeometry y="270" width="80" height="40" as="geometry" />
        </mxCell>
        <mxCell id="ibWpikEOWmiRaArv5uns-128" value="Disk 1" style="rounded=0;whiteSpace=wrap;html=1;fillColor=none;strokeColor=none;" vertex="1" parent="1">
          <mxGeometry x="80" width="40" height="20" as="geometry" />
        </mxCell>
        <mxCell id="ibWpikEOWmiRaArv5uns-129" value="Disk 2" style="rounded=0;whiteSpace=wrap;html=1;fillColor=none;strokeColor=none;" vertex="1" parent="1">
          <mxGeometry x="140" width="40" height="20" as="geometry" />
        </mxCell>
        <mxCell id="ibWpikEOWmiRaArv5uns-130" value="Disk 3" style="rounded=0;whiteSpace=wrap;html=1;fillColor=none;strokeColor=none;" vertex="1" parent="1">
          <mxGeometry x="200" width="40" height="20" as="geometry" />
        </mxCell>
        <mxCell id="ibWpikEOWmiRaArv5uns-131" value="Disk 4" style="rounded=0;whiteSpace=wrap;html=1;fillColor=none;strokeColor=none;" vertex="1" parent="1">
          <mxGeometry x="260" width="40" height="20" as="geometry" />
        </mxCell>
        <mxCell id="ibWpikEOWmiRaArv5uns-136" value="P" style="rounded=0;whiteSpace=wrap;html=1;fillColor=none;" vertex="1" parent="1">
          <mxGeometry x="80" y="160" width="40" height="20" as="geometry" />
        </mxCell>
        <mxCell id="ibWpikEOWmiRaArv5uns-137" value="10" style="rounded=0;whiteSpace=wrap;html=1;fillColor=none;" vertex="1" parent="1">
          <mxGeometry x="140" y="160" width="40" height="20" as="geometry" />
        </mxCell>
        <mxCell id="ibWpikEOWmiRaArv5uns-138" value="11" style="rounded=0;whiteSpace=wrap;html=1;fillColor=none;" vertex="1" parent="1">
          <mxGeometry x="200" y="160" width="40" height="20" as="geometry" />
        </mxCell>
        <mxCell id="ibWpikEOWmiRaArv5uns-139" value="12" style="rounded=0;whiteSpace=wrap;html=1;fillColor=none;" vertex="1" parent="1">
          <mxGeometry x="260" y="160" width="40" height="20" as="geometry" />
        </mxCell>
        <mxCell id="ibWpikEOWmiRaArv5uns-148" value="1" style="rounded=0;whiteSpace=wrap;html=1;fillColor=#999999;fillStyle=cross-hatch;" vertex="1" parent="1">
          <mxGeometry x="680" y="40" width="40" height="20" as="geometry" />
        </mxCell>
        <mxCell id="ibWpikEOWmiRaArv5uns-149" value="2" style="rounded=0;whiteSpace=wrap;html=1;fillColor=none;" vertex="1" parent="1">
          <mxGeometry x="500" y="40" width="40" height="20" as="geometry" />
        </mxCell>
        <mxCell id="ibWpikEOWmiRaArv5uns-150" value="3" style="rounded=0;whiteSpace=wrap;html=1;fillColor=none;" vertex="1" parent="1">
          <mxGeometry x="560" y="40" width="40" height="20" as="geometry" />
        </mxCell>
        <mxCell id="ibWpikEOWmiRaArv5uns-151" value="P" style="rounded=0;whiteSpace=wrap;html=1;fillColor=none;" vertex="1" parent="1">
          <mxGeometry x="620" y="40" width="40" height="20" as="geometry" />
        </mxCell>
        <mxCell id="ibWpikEOWmiRaArv5uns-152" value="4" style="rounded=0;whiteSpace=wrap;html=1;fillColor=none;" vertex="1" parent="1">
          <mxGeometry x="440" y="80" width="40" height="20" as="geometry" />
        </mxCell>
        <mxCell id="ibWpikEOWmiRaArv5uns-153" value="5" style="rounded=0;whiteSpace=wrap;html=1;fillColor=#999999;fillStyle=cross-hatch;" vertex="1" parent="1">
          <mxGeometry x="680" y="80" width="40" height="20" as="geometry" />
        </mxCell>
        <mxCell id="ibWpikEOWmiRaArv5uns-154" value="P" style="rounded=0;whiteSpace=wrap;html=1;fillColor=none;" vertex="1" parent="1">
          <mxGeometry x="560" y="80" width="40" height="20" as="geometry" />
        </mxCell>
        <mxCell id="ibWpikEOWmiRaArv5uns-155" value="6" style="rounded=0;whiteSpace=wrap;html=1;fillColor=none;" vertex="1" parent="1">
          <mxGeometry x="620" y="80" width="40" height="20" as="geometry" />
        </mxCell>
        <mxCell id="ibWpikEOWmiRaArv5uns-156" value="7" style="rounded=0;whiteSpace=wrap;html=1;fillColor=none;" vertex="1" parent="1">
          <mxGeometry x="440" y="120" width="40" height="20" as="geometry" />
        </mxCell>
        <mxCell id="ibWpikEOWmiRaArv5uns-157" value="P" style="rounded=0;whiteSpace=wrap;html=1;fillColor=none;" vertex="1" parent="1">
          <mxGeometry x="500" y="120" width="40" height="20" as="geometry" />
        </mxCell>
        <mxCell id="ibWpikEOWmiRaArv5uns-158" value="8" style="rounded=0;whiteSpace=wrap;html=1;fillColor=#999999;fillStyle=cross-hatch;" vertex="1" parent="1">
          <mxGeometry x="680" y="120" width="40" height="20" as="geometry" />
        </mxCell>
        <mxCell id="ibWpikEOWmiRaArv5uns-159" value="9" style="rounded=0;whiteSpace=wrap;html=1;fillColor=none;" vertex="1" parent="1">
          <mxGeometry x="620" y="120" width="40" height="20" as="geometry" />
        </mxCell>
        <mxCell id="ibWpikEOWmiRaArv5uns-163" value="NULL" style="rounded=0;whiteSpace=wrap;html=1;fillColor=#999999;fillStyle=hatch;" vertex="1" parent="1">
          <mxGeometry x="620" y="260" width="40" height="20" as="geometry" />
        </mxCell>
        <mxCell id="ibWpikEOWmiRaArv5uns-164" value="&lt;b&gt;&lt;font style=&quot;font-size: 18px;&quot;&gt;...&lt;/font&gt;&lt;/b&gt;" style="rounded=0;whiteSpace=wrap;html=1;rotation=90;fillColor=none;strokeColor=none;" vertex="1" parent="1">
          <mxGeometry x="560" y="335" width="40" height="10" as="geometry" />
        </mxCell>
        <mxCell id="ibWpikEOWmiRaArv5uns-165" value="5&#39;" style="rounded=0;whiteSpace=wrap;html=1;fillColor=#999999;fillStyle=hatch;" vertex="1" parent="1">
          <mxGeometry x="500" y="300" width="40" height="20" as="geometry" />
        </mxCell>
        <mxCell id="ibWpikEOWmiRaArv5uns-166" value="NULL" style="rounded=0;whiteSpace=wrap;html=1;fillColor=#999999;fillStyle=hatch;" vertex="1" parent="1">
          <mxGeometry x="560" y="300" width="40" height="20" as="geometry" />
        </mxCell>
        <mxCell id="ibWpikEOWmiRaArv5uns-167" value="6&#39;" style="rounded=0;whiteSpace=wrap;html=1;fillColor=#999999;fillStyle=hatch;" vertex="1" parent="1">
          <mxGeometry x="620" y="300" width="40" height="20" as="geometry" />
        </mxCell>
        <mxCell id="ibWpikEOWmiRaArv5uns-169" value="" style="endArrow=none;dashed=1;html=1;rounded=0;" edge="1" parent="1">
          <mxGeometry width="50" height="50" relative="1" as="geometry">
            <mxPoint x="420" y="240" as="sourcePoint" />
            <mxPoint x="740" y="240" as="targetPoint" />
          </mxGeometry>
        </mxCell>
        <mxCell id="ibWpikEOWmiRaArv5uns-170" value="RAID part" style="rounded=0;whiteSpace=wrap;html=1;fontSize=15;fillColor=none;strokeColor=none;" vertex="1" parent="1">
          <mxGeometry x="360" y="110" width="80" height="40" as="geometry" />
        </mxCell>
        <mxCell id="ibWpikEOWmiRaArv5uns-171" value="Soft part" style="rounded=0;whiteSpace=wrap;html=1;fontSize=15;fillColor=none;strokeColor=none;" vertex="1" parent="1">
          <mxGeometry x="360" y="270" width="80" height="40" as="geometry" />
        </mxCell>
        <mxCell id="ibWpikEOWmiRaArv5uns-172" value="Disk 1" style="rounded=0;whiteSpace=wrap;html=1;fillColor=none;strokeColor=none;" vertex="1" parent="1">
          <mxGeometry x="440" width="40" height="20" as="geometry" />
        </mxCell>
        <mxCell id="ibWpikEOWmiRaArv5uns-173" value="Disk 2" style="rounded=0;whiteSpace=wrap;html=1;fillColor=none;strokeColor=none;" vertex="1" parent="1">
          <mxGeometry x="500" width="40" height="20" as="geometry" />
        </mxCell>
        <mxCell id="ibWpikEOWmiRaArv5uns-174" value="Disk 3" style="rounded=0;whiteSpace=wrap;html=1;fillColor=none;strokeColor=none;" vertex="1" parent="1">
          <mxGeometry x="560" width="40" height="20" as="geometry" />
        </mxCell>
        <mxCell id="ibWpikEOWmiRaArv5uns-175" value="Disk 4" style="rounded=0;whiteSpace=wrap;html=1;fillColor=none;strokeColor=none;" vertex="1" parent="1">
          <mxGeometry x="620" width="40" height="20" as="geometry" />
        </mxCell>
        <mxCell id="ibWpikEOWmiRaArv5uns-176" value="P" style="rounded=0;whiteSpace=wrap;html=1;fillColor=none;" vertex="1" parent="1">
          <mxGeometry x="440" y="160" width="40" height="20" as="geometry" />
        </mxCell>
        <mxCell id="ibWpikEOWmiRaArv5uns-177" value="10" style="rounded=0;whiteSpace=wrap;html=1;fillColor=none;" vertex="1" parent="1">
          <mxGeometry x="500" y="160" width="40" height="20" as="geometry" />
        </mxCell>
        <mxCell id="ibWpikEOWmiRaArv5uns-178" value="11" style="rounded=0;whiteSpace=wrap;html=1;fillColor=none;" vertex="1" parent="1">
          <mxGeometry x="560" y="160" width="40" height="20" as="geometry" />
        </mxCell>
        <mxCell id="ibWpikEOWmiRaArv5uns-179" value="12" style="rounded=0;whiteSpace=wrap;html=1;fillColor=#999999;fillStyle=cross-hatch;" vertex="1" parent="1">
          <mxGeometry x="680" y="160" width="40" height="20" as="geometry" />
        </mxCell>
        <mxCell id="ibWpikEOWmiRaArv5uns-188" value="New Disk" style="rounded=0;whiteSpace=wrap;html=1;fillColor=none;strokeColor=none;" vertex="1" parent="1">
          <mxGeometry x="670" width="60" height="20" as="geometry" />
        </mxCell>
        <mxCell id="ibWpikEOWmiRaArv5uns-192" value="NULL" style="rounded=0;whiteSpace=wrap;html=1;fillColor=#999999;fillStyle=hatch;" vertex="1" parent="1">
          <mxGeometry x="680" y="260" width="40" height="20" as="geometry" />
        </mxCell>
        <mxCell id="ibWpikEOWmiRaArv5uns-197" value="13" style="rounded=0;whiteSpace=wrap;html=1;fillColor=none;" vertex="1" parent="1">
          <mxGeometry x="80" y="200" width="40" height="20" as="geometry" />
        </mxCell>
        <mxCell id="ibWpikEOWmiRaArv5uns-198" value="14" style="rounded=0;whiteSpace=wrap;html=1;fillColor=none;" vertex="1" parent="1">
          <mxGeometry x="140" y="200" width="40" height="20" as="geometry" />
        </mxCell>
        <mxCell id="ibWpikEOWmiRaArv5uns-199" value="15" style="rounded=0;whiteSpace=wrap;html=1;fillColor=none;" vertex="1" parent="1">
          <mxGeometry x="200" y="200" width="40" height="20" as="geometry" />
        </mxCell>
        <mxCell id="ibWpikEOWmiRaArv5uns-200" value="P" style="rounded=0;whiteSpace=wrap;html=1;fillColor=none;" vertex="1" parent="1">
          <mxGeometry x="260" y="200" width="40" height="20" as="geometry" />
        </mxCell>
        <mxCell id="ibWpikEOWmiRaArv5uns-201" value="13" style="rounded=0;whiteSpace=wrap;html=1;fillColor=none;" vertex="1" parent="1">
          <mxGeometry x="440" y="200" width="40" height="20" as="geometry" />
        </mxCell>
        <mxCell id="ibWpikEOWmiRaArv5uns-202" value="14" style="rounded=0;whiteSpace=wrap;html=1;fillColor=none;" vertex="1" parent="1">
          <mxGeometry x="500" y="200" width="40" height="20" as="geometry" />
        </mxCell>
        <mxCell id="ibWpikEOWmiRaArv5uns-203" value="15" style="rounded=0;whiteSpace=wrap;html=1;fillColor=none;" vertex="1" parent="1">
          <mxGeometry x="560" y="200" width="40" height="20" as="geometry" />
        </mxCell>
        <mxCell id="ibWpikEOWmiRaArv5uns-204" value="P" style="rounded=0;whiteSpace=wrap;html=1;fillColor=none;" vertex="1" parent="1">
          <mxGeometry x="620" y="200" width="40" height="20" as="geometry" />
        </mxCell>
        <mxCell id="ibWpikEOWmiRaArv5uns-205" value="1&#39;" style="rounded=0;whiteSpace=wrap;html=1;fillColor=none;fillStyle=hatch;" vertex="1" parent="1">
          <mxGeometry x="440" y="40" width="40" height="20" as="geometry" />
        </mxCell>
        <mxCell id="ibWpikEOWmiRaArv5uns-206" value="2&#39;" style="rounded=0;whiteSpace=wrap;html=1;fillColor=none;fillStyle=hatch;" vertex="1" parent="1">
          <mxGeometry x="500" y="80" width="40" height="20" as="geometry" />
        </mxCell>
        <mxCell id="ibWpikEOWmiRaArv5uns-207" value="3&#39;" style="rounded=0;whiteSpace=wrap;html=1;fillColor=none;fillStyle=hatch;" vertex="1" parent="1">
          <mxGeometry x="560" y="120" width="40" height="20" as="geometry" />
        </mxCell>
        <mxCell id="ibWpikEOWmiRaArv5uns-208" value="4&#39;" style="rounded=0;whiteSpace=wrap;html=1;fillColor=none;fillStyle=hatch;" vertex="1" parent="1">
          <mxGeometry x="620" y="160" width="40" height="20" as="geometry" />
        </mxCell>
        <mxCell id="ibWpikEOWmiRaArv5uns-209" value="P&#39;" style="rounded=0;whiteSpace=wrap;html=1;fillColor=none;fillStyle=hatch;" vertex="1" parent="1">
          <mxGeometry x="680" y="200" width="40" height="20" as="geometry" />
        </mxCell>
        <mxCell id="ibWpikEOWmiRaArv5uns-210" value="NULL" style="rounded=0;whiteSpace=wrap;html=1;fillColor=#999999;fillStyle=hatch;" vertex="1" parent="1">
          <mxGeometry x="680" y="300" width="40" height="20" as="geometry" />
        </mxCell>
        <mxCell id="ibWpikEOWmiRaArv5uns-213" value="NULL" style="rounded=0;whiteSpace=wrap;html=1;fillColor=#999999;fillStyle=hatch;" vertex="1" parent="1">
          <mxGeometry x="440" y="260" width="40" height="20" as="geometry" />
        </mxCell>
        <mxCell id="ibWpikEOWmiRaArv5uns-214" value="NULL" style="rounded=0;whiteSpace=wrap;html=1;fillColor=#999999;fillStyle=hatch;" vertex="1" parent="1">
          <mxGeometry x="500" y="260" width="40" height="20" as="geometry" />
        </mxCell>
        <mxCell id="ibWpikEOWmiRaArv5uns-215" value="NULL" style="rounded=0;whiteSpace=wrap;html=1;fillColor=#999999;fillStyle=hatch;" vertex="1" parent="1">
          <mxGeometry x="560" y="260" width="40" height="20" as="geometry" />
        </mxCell>
        <mxCell id="ibWpikEOWmiRaArv5uns-216" value="NULL" style="rounded=0;whiteSpace=wrap;html=1;fillColor=#999999;fillStyle=hatch;" vertex="1" parent="1">
          <mxGeometry x="440" y="300" width="40" height="20" as="geometry" />
        </mxCell>
        <mxCell id="ibWpikEOWmiRaArv5uns-219" value="" style="endArrow=none;html=1;rounded=0;" edge="1" parent="1">
          <mxGeometry width="50" height="50" relative="1" as="geometry">
            <mxPoint x="490" y="270" as="sourcePoint" />
            <mxPoint x="490" y="50" as="targetPoint" />
          </mxGeometry>
        </mxCell>
        <mxCell id="ibWpikEOWmiRaArv5uns-222" value="" style="endArrow=none;html=1;rounded=0;exitX=1;exitY=0.5;exitDx=0;exitDy=0;" edge="1" parent="1" source="ibWpikEOWmiRaArv5uns-213">
          <mxGeometry width="50" height="50" relative="1" as="geometry">
            <mxPoint x="420" y="230" as="sourcePoint" />
            <mxPoint x="490" y="270" as="targetPoint" />
          </mxGeometry>
        </mxCell>
        <mxCell id="ibWpikEOWmiRaArv5uns-223" value="" style="endArrow=classic;html=1;rounded=0;entryX=1;entryY=0.5;entryDx=0;entryDy=0;" edge="1" parent="1" target="ibWpikEOWmiRaArv5uns-205">
          <mxGeometry width="50" height="50" relative="1" as="geometry">
            <mxPoint x="490" y="50" as="sourcePoint" />
            <mxPoint x="470" y="180" as="targetPoint" />
          </mxGeometry>
        </mxCell>
        <mxCell id="ibWpikEOWmiRaArv5uns-224" value="" style="endArrow=none;html=1;rounded=0;" edge="1" parent="1">
          <mxGeometry width="50" height="50" relative="1" as="geometry">
            <mxPoint x="550" y="270" as="sourcePoint" />
            <mxPoint x="550" y="90" as="targetPoint" />
          </mxGeometry>
        </mxCell>
        <mxCell id="ibWpikEOWmiRaArv5uns-225" value="" style="endArrow=none;html=1;rounded=0;exitX=1;exitY=0.5;exitDx=0;exitDy=0;" edge="1" parent="1" source="ibWpikEOWmiRaArv5uns-214">
          <mxGeometry width="50" height="50" relative="1" as="geometry">
            <mxPoint x="420" y="230" as="sourcePoint" />
            <mxPoint x="550" y="270" as="targetPoint" />
          </mxGeometry>
        </mxCell>
        <mxCell id="ibWpikEOWmiRaArv5uns-226" value="" style="endArrow=classic;html=1;rounded=0;entryX=1;entryY=0.5;entryDx=0;entryDy=0;" edge="1" parent="1" target="ibWpikEOWmiRaArv5uns-206">
          <mxGeometry width="50" height="50" relative="1" as="geometry">
            <mxPoint x="550" y="90" as="sourcePoint" />
            <mxPoint x="470" y="180" as="targetPoint" />
          </mxGeometry>
        </mxCell>
        <mxCell id="ibWpikEOWmiRaArv5uns-227" value="" style="endArrow=none;html=1;rounded=0;" edge="1" parent="1">
          <mxGeometry width="50" height="50" relative="1" as="geometry">
            <mxPoint x="610" y="270" as="sourcePoint" />
            <mxPoint x="610" y="130" as="targetPoint" />
          </mxGeometry>
        </mxCell>
        <mxCell id="ibWpikEOWmiRaArv5uns-228" value="" style="endArrow=classic;html=1;rounded=0;entryX=1;entryY=0.5;entryDx=0;entryDy=0;" edge="1" parent="1" target="ibWpikEOWmiRaArv5uns-207">
          <mxGeometry width="50" height="50" relative="1" as="geometry">
            <mxPoint x="610" y="130" as="sourcePoint" />
            <mxPoint x="470" y="180" as="targetPoint" />
          </mxGeometry>
        </mxCell>
        <mxCell id="ibWpikEOWmiRaArv5uns-229" value="" style="endArrow=none;html=1;rounded=0;entryX=1;entryY=0.5;entryDx=0;entryDy=0;" edge="1" parent="1" target="ibWpikEOWmiRaArv5uns-215">
          <mxGeometry width="50" height="50" relative="1" as="geometry">
            <mxPoint x="610" y="270" as="sourcePoint" />
            <mxPoint x="470" y="180" as="targetPoint" />
          </mxGeometry>
        </mxCell>
        <mxCell id="ibWpikEOWmiRaArv5uns-230" value="" style="endArrow=none;html=1;rounded=0;" edge="1" parent="1">
          <mxGeometry width="50" height="50" relative="1" as="geometry">
            <mxPoint x="670" y="270" as="sourcePoint" />
            <mxPoint x="670" y="170" as="targetPoint" />
          </mxGeometry>
        </mxCell>
        <mxCell id="ibWpikEOWmiRaArv5uns-231" value="" style="endArrow=none;html=1;rounded=0;exitX=1;exitY=0.5;exitDx=0;exitDy=0;" edge="1" parent="1" source="ibWpikEOWmiRaArv5uns-163">
          <mxGeometry width="50" height="50" relative="1" as="geometry">
            <mxPoint x="420" y="230" as="sourcePoint" />
            <mxPoint x="670" y="270" as="targetPoint" />
          </mxGeometry>
        </mxCell>
        <mxCell id="ibWpikEOWmiRaArv5uns-232" value="" style="endArrow=classic;html=1;rounded=0;" edge="1" parent="1">
          <mxGeometry width="50" height="50" relative="1" as="geometry">
            <mxPoint x="670" y="170" as="sourcePoint" />
            <mxPoint x="660" y="170" as="targetPoint" />
          </mxGeometry>
        </mxCell>
      </root>
    </mxGraphModel>
  </diagram>
</mxfile>
